External Loads File
version=1
nRows=78
nColumns=13
Range=5.000000e-03-10 seconds
endheader
time 	forceRightX 	forceRightY 	forceRightZ 	pointRightX 	pointRightY 	pointRightZ 	forceLeftX 	forceLeftY 	forceLeftZ 	pointLeftX 	pointLeftY 	pointLeftZ 		
2.505000 41.178521 395.577740 -0.000000 0.307114 0.483200 -0.159350 51.909190 -138.374218 -0.000000 0.164338 0.171777 -0.398422
2.510000 49.400628 433.621493 -0.000000 0.310455 0.480097 -0.159800 42.259235 -146.092202 -0.000000 0.159003 0.175127 -0.398209
2.515000 56.734763 473.088303 -0.000000 0.314060 0.476551 -0.159652 32.547426 -154.865941 -0.000000 0.153985 0.178624 -0.398017
2.520000 62.544111 513.074534 -0.000000 0.317524 0.472863 -0.159859 22.840034 -163.820884 -0.000000 0.149172 0.182347 -0.397675
2.525000 66.866524 552.446049 -0.000000 0.320855 0.468987 -0.160039 13.034495 -171.908052 -0.000000 0.144597 0.186528 -0.397237
2.530000 70.009931 590.038188 -0.000000 0.324270 0.464614 -0.160315 3.109758 -178.021923 -0.000000 0.140171 0.190732 -0.396800
2.535000 71.705902 624.890123 -0.000000 0.327640 0.460012 -0.160378 -6.580234 -181.179389 -0.000000 0.135982 0.195260 -0.396322
2.540000 72.336752 656.159378 -0.000000 0.331148 0.455070 -0.160589 -15.733626 -180.731103 -0.000000 0.131877 0.199810 -0.396033
2.545000 71.215208 683.332957 -0.000000 0.334792 0.450182 -0.160897 -23.711903 -176.504957 -0.000000 0.127933 0.204287 -0.395969
2.550000 69.287408 705.944271 -0.000000 0.338582 0.444933 -0.161171 -30.370888 -168.740090 -0.000000 0.124140 0.208860 -0.396118
2.555000 66.232573 723.910680 -0.000000 0.342215 0.439443 -0.161351 -35.307757 -158.033827 -0.000000 0.120491 0.213557 -0.396281
2.560000 62.660365 737.330416 -0.000000 0.345903 0.433721 -0.161454 -38.419776 -145.081351 -0.000000 0.116926 0.218300 -0.396335
2.565000 58.036956 746.688691 -0.000000 0.349263 0.427921 -0.161415 -39.454238 -130.629193 -0.000000 0.113520 0.223234 -0.396196
2.570000 53.213374 752.628968 -0.000000 0.352422 0.421724 -0.161212 -38.540518 -115.301314 -0.000000 0.110320 0.228314 -0.396054
2.575000 48.880629 756.027149 -0.000000 0.355632 0.415228 -0.161075 -35.815699 -99.682691 -0.000000 0.107218 0.233595 -0.395818
2.580000 45.669442 757.816471 -0.000000 0.358750 0.408428 -0.160976 -31.413228 -84.326821 -0.000000 0.103829 0.239109 -0.395145
2.585000 41.099165 758.989162 -0.000000 0.361598 0.401954 -0.160907 -25.200464 -69.854945 -0.000000 0.101080 0.244928 -0.395249
2.590000 36.972283 760.093700 -0.000000 0.364199 0.395439 -0.160800 -17.645325 -56.595200 -0.000000 0.098410 0.250998 -0.395380
2.595000 33.701838 761.620007 -0.000000 0.366827 0.388805 -0.161021 -9.113649 -44.807420 -0.000000 0.095923 0.257261 -0.395552
2.600000 30.467307 763.986800 -0.000000 0.369130 0.382173 -0.161226 -0.003790 -34.618994 -0.000000 0.093703 0.263688 -0.395730
2.605000 27.523584 767.453063 -0.000000 0.371240 0.375426 -0.161393 9.131036 -26.017431 -0.000000 0.091674 0.270167 -0.395801
2.610000 24.915119 772.188267 -0.000000 0.373048 0.368512 -0.161231 17.751297 -18.931675 -0.000000 0.089952 0.276724 -0.395932
2.615000 22.733914 778.261100 -0.000000 0.374785 0.361532 -0.161533 25.368326 -13.262989 -0.000000 0.088672 0.283392 -0.396196
2.620000 21.226576 785.659284 -0.000000 0.376107 0.354452 -0.161535 31.583965 -8.912773 -0.000000 0.087651 0.290206 -0.396269
2.625000 20.357340 794.357153 -0.000000 0.377190 0.347159 -0.161493 36.127435 -5.789367 -0.000000 0.086952 0.296959 -0.396386
2.630000 19.928330 804.354444 -0.000000 0.377999 0.339904 -0.161422 38.851981 -3.809051 -0.000000 0.086535 0.303799 -0.396419
2.635000 20.941692 815.620188 -0.000000 0.378543 0.332463 -0.161397 39.734075 -2.931786 -0.000000 0.086541 0.310831 -0.396440
2.640000 22.212533 828.128437 -0.000000 0.378819 0.325065 -0.161347 38.887162 -2.965621 -0.000000 0.086915 0.317788 -0.396534
2.645000 24.305429 841.765075 -0.000000 0.378869 0.317735 -0.161233 36.498469 -3.754403 -0.000000 0.087655 0.324836 -0.396601
2.650000 27.683552 856.409903 -0.000000 0.378521 0.310218 -0.161349 32.788263 -5.105523 -0.000000 0.088769 0.331819 -0.396653
2.655000 31.117424 872.013698 -0.000000 0.377886 0.302892 -0.161350 28.009091 -6.782053 -0.000000 0.090144 0.338677 -0.396695
2.660000 36.082890 888.467080 -0.000000 0.377187 0.295489 -0.160841 22.402446 -8.716208 -0.000000 0.091918 0.345622 -0.396807
2.665000 41.888336 905.745816 -0.000000 0.375918 0.288194 -0.161612 16.198113 -10.832884 -0.000000 0.094002 0.352487 -0.396880
2.670000 50.009061 923.681356 -0.000000 0.374502 0.280922 -0.161622 9.562388 -13.126442 -0.000000 0.096348 0.359693 -0.396947
2.675000 57.281028 942.263318 -0.000000 0.372762 0.273676 -0.161581 2.693016 -15.514587 -0.000000 0.098992 0.366160 -0.397175
2.680000 66.849816 961.095712 -0.000000 0.370704 0.266395 -0.161572 -4.320775 -17.955591 -0.000000 0.101948 0.372820 -0.397402
2.685000 77.066912 980.061236 -0.000000 0.368332 0.259283 -0.161574 -11.339864 -20.364421 -0.000000 0.105161 0.379382 -0.397669
2.690000 88.159634 998.952330 -0.000000 0.365695 0.252198 -0.161547 -18.289575 -22.666980 -0.000000 0.108668 0.385822 -0.397770
2.695000 99.929248 1017.587713 -0.000000 0.362779 0.245239 -0.161372 -25.103654 -24.795888 -0.000000 0.112402 0.392233 -0.397989
2.700000 111.812300 1035.815781 -0.000000 0.359553 0.238412 -0.161324 -31.687487 -26.712068 -0.000000 0.116443 0.398396 -0.398258
2.705000 123.723712 1053.449766 -0.000000 0.356154 0.231607 -0.161146 -37.925579 -28.383999 -0.000000 0.120715 0.404323 -0.398620
2.710000 134.915488 1070.407590 -0.000000 0.352729 0.225030 -0.161219 -43.653406 -29.821068 -0.000000 0.125212 0.410128 -0.398981
2.715000 146.453752 1086.401716 -0.000000 0.348811 0.218703 -0.161072 -48.742088 -30.983596 -0.000000 0.129918 0.415843 -0.399322
2.720000 157.851262 1101.318696 -0.000000 0.344641 0.212539 -0.160998 -53.038831 -31.912850 -0.000000 0.134869 0.421371 -0.399662
2.725000 169.145115 1114.947762 -0.000000 0.339973 0.206612 -0.160730 -56.453036 -32.636712 -0.000000 0.140000 0.426578 -0.399986
2.730000 179.630539 1127.147543 -0.000000 0.335291 0.201103 -0.160716 -58.944071 -33.189837 -0.000000 0.145329 0.431868 -0.400510
2.735000 190.232791 1137.449763 -0.000000 0.330375 0.195576 -0.160745 -60.611477 -33.471295 -0.000000 0.150863 0.436945 -0.400960
2.740000 200.011866 1145.569547 -0.000000 0.325290 0.190435 -0.160693 -61.591224 -33.449984 -0.000000 0.156468 0.442074 -0.401203
2.745000 209.489943 1150.875692 -0.000000 0.319964 0.185593 -0.160654 -62.111462 -33.049499 -0.000000 0.162271 0.447095 -0.401421
2.750000 218.863180 1152.731886 -0.000000 0.314444 0.180919 -0.160597 -62.388193 -32.292100 -0.000000 0.168296 0.451996 -0.401402
2.755000 227.307192 1150.714641 -0.000000 0.308697 0.176539 -0.160616 -62.598705 -31.310015 -0.000000 0.174344 0.456733 -0.401436
2.760000 234.750034 1144.343134 -0.000000 0.302892 0.172650 -0.160633 -62.953382 -30.147504 -0.000000 0.180645 0.461292 -0.401480
2.765000 241.753479 1133.098305 -0.000000 0.296771 0.168922 -0.160638 -63.669981 -28.706781 -0.000000 0.186962 0.465694 -0.401296
2.770000 247.470599 1116.846126 -0.000000 0.290534 0.165660 -0.160634 -64.854437 -26.920922 -0.000000 0.193390 0.469841 -0.401124
2.775000 252.540374 1095.225680 -0.000000 0.284192 0.162792 -0.160660 -66.542024 -24.683742 -0.000000 0.200094 0.473714 -0.401035
2.780000 256.590752 1068.187489 -0.000000 0.277819 0.160128 -0.160669 -68.664897 -22.003478 -0.000000 0.207010 0.477178 -0.401105
2.785000 258.466459 1036.009109 -0.000000 0.271243 0.157864 -0.160682 -71.099903 -18.954892 -0.000000 0.213611 0.480399 -0.400546
2.790000 259.818245 998.441304 -0.000000 0.264638 0.155931 -0.160604 -73.744719 -15.419595 -0.000000 0.220580 0.483119 -0.400551
2.795000 259.930108 955.977694 -0.000000 0.257948 0.154227 -0.160618 -76.431794 -11.465313 -0.000000 0.227606 0.485614 -0.400331
2.800000 258.154984 909.274445 -0.000000 0.251231 0.152961 -0.160523 -79.015372 -7.229734 -0.000000 0.234535 0.487723 -0.400164
2.805000 254.626484 858.894173 -0.000000 0.244624 0.152032 -0.160297 -81.389840 -2.833488 -0.000000 0.241486 0.489463 -0.400052
2.810000 250.415637 805.151570 -0.000000 0.237766 0.151417 -0.160210 -83.476836 1.698167 -0.000000 0.248487 0.490885 -0.400135
2.815000 245.047076 748.795598 -0.000000 0.230762 0.151180 -0.160513 -85.214282 6.229364 -0.000000 0.255439 0.491939 -0.400023
2.820000 237.941411 690.583263 -0.000000 0.223991 0.151317 -0.160401 -86.559826 10.652306 -0.000000 0.262356 0.492746 -0.400123
2.825000 229.766639 630.765854 -0.000000 0.217259 0.151754 -0.160302 -87.435994 15.110426 -0.000000 0.269276 0.493133 -0.399987
2.830000 220.128236 569.831478 -0.000000 0.210559 0.152728 -0.160236 -87.730856 19.755942 -0.000000 0.275813 0.493172 -0.400323
2.835000 209.455982 507.848130 -0.000000 0.203966 0.153762 -0.160184 -87.277296 24.920427 -0.000000 0.282249 0.492839 -0.400260
2.840000 198.334863 444.726049 -0.000000 0.197410 0.155402 -0.160160 -85.897283 30.922241 -0.000000 0.288721 0.492179 -0.400176
2.845000 186.426269 380.844363 -0.000000 0.190904 0.157220 -0.160108 -83.519913 37.811318 -0.000000 0.294999 0.491123 -0.400126
2.850000 174.019523 316.565124 -0.000000 0.184414 0.159600 -0.160019 -80.102120 45.715008 -0.000000 0.301068 0.489743 -0.400109
2.855000 161.260018 252.624311 -0.000000 0.177987 0.162413 -0.159959 -75.630577 54.805178 -0.000000 0.306956 0.487912 -0.400126
2.860000 148.244321 190.098950 -0.000000 0.171575 0.165675 -0.159971 -70.133752 65.321492 -0.000000 0.312562 0.485801 -0.400068
2.865000 135.195446 130.216813 -0.000000 0.165169 0.169281 -0.159991 -63.698727 77.558629 -0.000000 0.317847 0.483165 -0.400066
2.870000 122.384979 74.166009 -0.000000 0.158625 0.173221 -0.159887 -56.420641 91.839048 -0.000000 0.322847 0.479579 -0.400129
2.875000 109.739163 23.557350 -0.000000 0.152343 0.177529 -0.159961 -48.818832 108.263507 -0.000000 0.327714 0.476863 -0.400624
2.880000 97.586515 -20.840624 -0.000000 0.146219 0.182171 -0.160097 -40.944315 127.302229 -0.000000 0.332064 0.473033 -0.400889
2.885000 85.938437 -58.213943 -0.000000 0.140245 0.187047 -0.160030 -32.995951 149.317877 -0.000000 0.336020 0.468652 -0.401259
2.890000 74.863315 -88.117767 -0.000000 0.134648 0.192016 -0.160052 -25.174375 174.607323 -0.000000 0.339707 0.463829 -0.401600
